<?xml version="1.0" encoding="UTF-8" standalone="no"?>
<!-- Created with Inkscape (http://www.inkscape.org/) -->

<svg
   xmlns:dc="http://purl.org/dc/elements/1.1/"
   xmlns:cc="http://creativecommons.org/ns#"
   xmlns:rdf="http://www.w3.org/1999/02/22-rdf-syntax-ns#"
   xmlns:svg="http://www.w3.org/2000/svg"
   xmlns="http://www.w3.org/2000/svg"
   xmlns:sodipodi="http://sodipodi.sourceforge.net/DTD/sodipodi-0.dtd"
   xmlns:inkscape="http://www.inkscape.org/namespaces/inkscape"
   id="svg2985"
   version="1.1"
   inkscape:version="0.48.2 r9819"
   width="1000"
   height="312.92715"
   xml:space="preserve"
   sodipodi:docname="RNW nl.svg"><metadata
     id="metadata2991"><rdf:RDF><cc:Work
         rdf:about=""><dc:format>image/svg+xml</dc:format><dc:type
           rdf:resource="http://purl.org/dc/dcmitype/StillImage" /><dc:title></dc:title></cc:Work></rdf:RDF></metadata><defs
     id="defs2989"><clipPath
       clipPathUnits="userSpaceOnUse"
       id="clipPath3001"><path
         d="m 0,0 566.929,0 0,389.764 L 0,389.764 0,0 z"
         id="path3003"
         inkscape:connector-curvature="0" /></clipPath><clipPath
       clipPathUnits="userSpaceOnUse"
       id="clipPath3013"><path
         d="m 0,0 566.929,0 0,595.276 L 0,595.276 0,0 z"
         id="path3015"
         inkscape:connector-curvature="0" /></clipPath><clipPath
       clipPathUnits="userSpaceOnUse"
       id="clipPath3039"><path
         d="m 439.37,555.028 113.108,0 0,33.16 -113.108,0 0,-33.16 z"
         id="path3041"
         inkscape:connector-curvature="0" /></clipPath><clipPath
       clipPathUnits="userSpaceOnUse"
       id="clipPath4149"><path
         inkscape:connector-curvature="0"
         d="m 456.04,782.818 116.558,0 0,36.394 -116.558,0 0,-36.394 z"
         id="path4151" /></clipPath></defs><sodipodi:namedview
     pagecolor="#ffffff"
     bordercolor="#666666"
     borderopacity="1"
     objecttolerance="10"
     gridtolerance="10"
     guidetolerance="10"
     inkscape:pageopacity="0"
     inkscape:pageshadow="2"
     inkscape:window-width="1920"
     inkscape:window-height="1028"
     id="namedview2987"
     showgrid="false"
     fit-margin-left="0.5"
     fit-margin-bottom="0.5"
     fit-margin-top="0.5"
     fit-margin-right="0.5"
     inkscape:zoom="0.76878545"
     inkscape:cx="843.42452"
     inkscape:cy="215.28884"
     inkscape:window-x="-8"
     inkscape:window-y="-8"
     inkscape:window-maximized="1"
     inkscape:current-layer="g2993" /><g
     id="g2993"
     inkscape:groupmode="layer"
     inkscape:label="frequentiefolder_rnw_zomer2010"
     transform="matrix(1.25,0,0,-1.25,-548.20674,678.58968)"><g
       id="g4145"
       transform="matrix(6.8566722,0,0,6.8566722,-2687.9514,-5074.5964)"
       style="fill:#d40000"><g
         id="g4147"
         clip-path="url(#clipPath4149)"
         style="fill:#d40000"><g
           id="g4153"
           transform="translate(517.283,811.0597)"
           style="fill:#0064a7;fill-opacity:1"><path
             d="M 0,0 1.292,0 C 1.868,0 2.17,-0.402 2.17,-0.8 2.17,-1.299 1.856,-1.585 1.308,-1.585 L 0,-1.585 0,0 z m 0.008,-2.56 1.19,0 c 0,-10e-4 0,-10e-4 0,-0.002 0,-0.049 0.89,-2.069 0.89,-2.069 l 0.008,-0.021 1.17,0 c 0,0 -0.998,2.228 -1.024,2.284 0.619,0.247 1.005,0.841 1.005,1.568 0,0.808 -0.512,1.752 -1.955,1.752 l -2.369,0 0,-5.604 1.085,0 0,2.092 z"
             style="fill:#0064a7;fill-opacity:1;fill-rule:nonzero;stroke:none"
             id="path4155"
             inkscape:connector-curvature="0" /></g><g
           id="g4157"
           transform="translate(522.7057,808.4445)"
           style="fill:#0064a7;fill-opacity:1"><path
             d="M 0,0 C 0.029,0.085 0.681,2.012 0.74,2.189 0.8,2.012 1.451,0.085 1.479,0 L 0,0 z m -0.336,-0.975 2.151,0 c 0.016,-0.046 0.359,-1.062 0.359,-1.062 l 1.128,0 -1.967,5.604 -1.151,0 -1.968,-5.604 1.089,0 c 0,0 0.344,1.016 0.359,1.062"
             style="fill:#0064a7;fill-opacity:1;fill-rule:nonzero;stroke:none"
             id="path4159"
             inkscape:connector-curvature="0" /></g><g
           id="g4161"
           transform="translate(529.6339,807.685)"
           style="fill:#0064a7;fill-opacity:1"><path
             d="m 0,0 c -0.195,-0.195 -0.463,-0.302 -0.756,-0.302 l -1.112,0 0,3.653 1.112,0 C -0.463,3.351 -0.194,3.244 0,3.049 0.388,2.661 0.388,2.007 0.388,1.528 0.388,1.047 0.388,0.388 0,0 M 0.823,-0.674 C 1.402,-0.078 1.48,0.774 1.48,1.528 1.48,2.279 1.402,3.127 0.822,3.723 0.449,4.112 -0.112,4.326 -0.756,4.326 l -2.189,0 0,-5.604 2.189,0 c 0.644,0 1.205,0.215 1.579,0.604"
             style="fill:#0064a7;fill-opacity:1;fill-rule:nonzero;stroke:none"
             id="path4163"
             inkscape:connector-curvature="0" /></g><path
           d="m 533.237,812.011 -1.092,0 0,-5.604 1.092,0 0,5.604 z"
           style="fill:#0064a7;fill-opacity:1;fill-rule:nonzero;stroke:none"
           id="path4165"
           inkscape:connector-curvature="0" /><g
           id="g4167"
           transform="translate(535.7409,810.7738)"
           style="fill:#0064a7;fill-opacity:1"><path
             d="M 0,0 C 0.205,0.22 0.53,0.356 0.848,0.356 1.167,0.356 1.492,0.22 1.697,0 l 0,0 c 0.358,-0.373 0.389,-1.005 0.389,-1.568 0,-0.433 0,-1.156 -0.389,-1.56 -0.205,-0.22 -0.53,-0.356 -0.849,-0.356 -0.319,0 -0.643,0.136 -0.848,0.356 -0.389,0.404 -0.389,1.127 -0.389,1.56 0,0.563 0.03,1.195 0.389,1.568 m 0.848,-4.468 c 0.634,0 1.208,0.226 1.617,0.635 0.594,0.593 0.713,1.306 0.713,2.265 0,0.963 -0.119,1.679 -0.713,2.272 -0.409,0.41 -0.983,0.635 -1.617,0.635 -0.633,0 -1.207,-0.225 -1.617,-0.635 -0.593,-0.593 -0.712,-1.309 -0.712,-2.272 0,-0.959 0.119,-1.672 0.712,-2.265 0.41,-0.409 0.984,-0.635 1.617,-0.635"
             style="fill:#0064a7;fill-opacity:1;fill-rule:nonzero;stroke:none"
             id="path4169"
             inkscape:connector-curvature="0" /></g><g
           id="g4171"
           transform="translate(517.2676,800.8964)"
           style="fill:#0064a7;fill-opacity:1"><path
             d="m 0,0 c 0.123,-0.194 2.342,-3.715 2.342,-3.715 l 1.092,0 0,5.604 -1.061,0 0,-3.66 c -0.123,0.194 -2.3,3.644 -2.3,3.644 l -1.134,0.016 0,-5.604 1.061,0 L 0,0 z"
             style="fill:#0064a7;fill-opacity:1;fill-rule:nonzero;stroke:none"
             id="path4173"
             inkscape:connector-curvature="0" /></g><g
           id="g4175"
           transform="translate(525.9782,801.8022)"
           style="fill:#0064a7;fill-opacity:1"><path
             d="m 0,0 0,0.983 -4.012,0 0,-5.604 4.012,0 0,0.984 -2.935,0 0,1.444 2.583,0 0,0.975 -2.583,0 0,1.218 L 0,0 z"
             style="fill:#0064a7;fill-opacity:1;fill-rule:nonzero;stroke:none"
             id="path4177"
             inkscape:connector-curvature="0" /></g><g
           id="g4179"
           transform="translate(529.4129,797.1815)"
           style="fill:#0064a7;fill-opacity:1"><path
             d="m 0,0 0,4.598 1.639,0 0,1.006 -4.355,0 0,-1.006 1.639,0 L -1.077,0 0,0 z"
             style="fill:#0064a7;fill-opacity:1;fill-rule:nonzero;stroke:none"
             id="path4181"
             inkscape:connector-curvature="0" /></g><g
           id="g4183"
           transform="translate(535.0712,797.1815)"
           style="fill:#0064a7;fill-opacity:1"><path
             d="m 0,0 1.077,0 0,5.604 -1.077,0 0,-2.162 -2.201,0 0,2.162 -1.077,0 0,-5.604 1.077,0 0,2.412 L 0,2.412 0,0 z"
             style="fill:#0064a7;fill-opacity:1;fill-rule:nonzero;stroke:none"
             id="path4185"
             inkscape:connector-curvature="0" /></g><g
           id="g4187"
           transform="translate(541.5021,798.1647)"
           style="fill:#0064a7;fill-opacity:1"><path
             d="m 0,0 -2.934,0 0,1.444 2.583,0 0,0.976 -2.583,0 0,1.217 2.934,0 0,0.984 -4.011,0 0,-5.604 4.011,0 L 0,0 z"
             style="fill:#0064a7;fill-opacity:1;fill-rule:nonzero;stroke:none"
             id="path4189"
             inkscape:connector-curvature="0" /></g><g
           id="g4191"
           transform="translate(543.5865,801.8337)"
           style="fill:#0064a7;fill-opacity:1"><path
             d="M 0,0 1.292,0 C 1.868,0 2.17,-0.402 2.17,-0.8 2.17,-1.299 1.855,-1.585 1.307,-1.585 L 0,-1.585 0,0 z m 0.007,-2.56 1.191,0 0,-10e-4 c 0,-0.05 0.889,-2.07 0.889,-2.07 l 0.009,-0.021 1.17,0 c 0,0 -0.999,2.228 -1.024,2.284 0.619,0.247 1.005,0.841 1.005,1.568 0,0.808 -0.512,1.752 -1.955,1.752 l -2.369,0 0,-5.604 1.084,0 0,2.092 z"
             style="fill:#0064a7;fill-opacity:1;fill-rule:nonzero;stroke:none"
             id="path4193"
             inkscape:connector-curvature="0" /></g><g
           id="g4195"
           transform="translate(551.4149,798.2037)"
           style="fill:#0064a7;fill-opacity:1"><path
             d="m 0,0 -2.568,0 0,4.582 -1.077,0 0,-5.604 3.645,0 L 0,0 z"
             style="fill:#0064a7;fill-opacity:1;fill-rule:nonzero;stroke:none"
             id="path4197"
             inkscape:connector-curvature="0" /></g><g
           id="g4199"
           transform="translate(554.7811,799.2185)"
           style="fill:#0064a7;fill-opacity:1"><path
             d="m 0,0 -1.479,0 c 0.028,0.086 0.68,2.012 0.74,2.189 C -0.68,2.012 -0.029,0.086 0,0 m 0.336,-0.975 c 0.015,-0.046 0.359,-1.062 0.359,-1.062 l 1.128,0 -1.968,5.604 -1.151,0 -1.967,-5.604 1.089,0 c 0,0 0.344,1.016 0.359,1.062 l 2.151,0 z"
             style="fill:#0064a7;fill-opacity:1;fill-rule:nonzero;stroke:none"
             id="path4201"
             inkscape:connector-curvature="0" /></g><g
           id="g4203"
           transform="translate(561.7805,797.1815)"
           style="fill:#0064a7;fill-opacity:1"><path
             d="m 0,0 0,5.604 -1.061,0 0,-3.66 c -0.123,0.194 -2.3,3.644 -2.3,3.644 l -1.135,0.016 0,-5.604 1.061,0 0,3.715 C -3.312,3.521 -1.093,0 -1.093,0 L 0,0 z"
             style="fill:#0064a7;fill-opacity:1;fill-rule:nonzero;stroke:none"
             id="path4205"
             inkscape:connector-curvature="0" /></g><g
           id="g4207"
           transform="translate(564.1218,801.8102)"
           style="fill:#0064a7;fill-opacity:1"><path
             d="m 0,0 1.113,0 c 0.292,0 0.561,-0.107 0.755,-0.302 0.388,-0.388 0.388,-1.043 0.388,-1.52 0,-0.482 0,-1.141 -0.388,-1.529 C 1.673,-3.546 1.405,-3.653 1.113,-3.653 L 0,-3.653 0,0 z m 1.113,0.975 -2.19,0 0,-5.604 2.19,0 c 0.644,0 1.204,0.215 1.578,0.605 0.579,0.595 0.657,1.447 0.657,2.202 0,0.75 -0.078,1.598 -0.657,2.193 -0.374,0.39 -0.934,0.604 -1.578,0.604"
             style="fill:#0064a7;fill-opacity:1;fill-rule:nonzero;stroke:none"
             id="path4209"
             inkscape:connector-curvature="0" /></g><g
           id="g4211"
           transform="translate(571.0458,800.4982)"
           style="fill:#0064a7;fill-opacity:1"><path
             d="m 0,0 c 0,0 -0.5,0.057 -0.5,0.057 l -0.701,0.084 c -0.242,0.04 -0.532,0.171 -0.532,0.566 0,0.176 0.054,0.313 0.177,0.444 0.247,0.255 0.652,0.294 0.872,0.294 0.271,0 0.638,-0.099 0.818,-0.286 C 0.268,1.017 0.359,0.812 0.367,0.635 l 0.001,-0.033 1.099,0 -0.001,0.035 C 1.457,1.19 1.15,1.597 0.894,1.841 0.522,2.189 -0.05,2.389 -0.676,2.389 -1.327,2.389 -1.943,2.166 -2.324,1.794 -2.647,1.47 -2.818,1.084 -2.818,0.676 c 0,-0.843 0.536,-1.434 1.434,-1.58 l 0.577,-0.068 0.647,-0.08 c 0.235,-0.044 0.628,-0.181 0.628,-0.622 0,-0.262 -0.095,-0.385 -0.209,-0.507 -0.228,-0.236 -0.634,-0.285 -0.935,-0.285 -0.282,0 -0.667,0.049 -0.904,0.286 -0.177,0.177 -0.279,0.417 -0.279,0.655 l 0,0.035 -1.099,0 0,-0.035 c 0,-0.489 0.22,-0.981 0.588,-1.314 0.409,-0.374 1.005,-0.579 1.679,-0.579 0.534,0 1.274,0.105 1.772,0.604 0.318,0.316 0.472,0.702 0.472,1.179 C 1.553,-0.591 0.751,-0.106 0,0"
             style="fill:#0064a7;fill-opacity:1;fill-rule:nonzero;stroke:none"
             id="path4213"
             inkscape:connector-curvature="0" /></g><g
           id="g4215"
           transform="translate(520.5518,789.821)"
           style="fill:#0064a7;fill-opacity:1"><path
             d="m 0,0 c -0.075,0.25 -1.084,3.653 -1.084,3.653 l -0.896,0 c 0,0 -1.031,-3.405 -1.106,-3.654 -0.051,0.255 -0.751,3.74 -0.751,3.74 l -1.032,0 1.131,-5.604 1.061,0 c 0,0 1.066,3.521 1.13,3.73 0.063,-0.209 1.129,-3.73 1.129,-3.73 l 1.061,0 1.115,5.604 -0.993,0 C 0.765,3.739 0.052,0.255 0,0"
             style="fill:#0064a7;fill-opacity:1;fill-rule:nonzero;stroke:none"
             id="path4217"
             inkscape:connector-curvature="0" /></g><g
           id="g4219"
           transform="translate(525.9481,789.1935)"
           style="fill:#0064a7;fill-opacity:1"><path
             d="m 0,0 c -0.206,-0.219 -0.53,-0.356 -0.849,-0.356 -0.319,0 -0.643,0.137 -0.848,0.356 -0.39,0.404 -0.39,1.127 -0.39,1.561 0,0.563 0.031,1.194 0.389,1.567 0.206,0.22 0.53,0.356 0.849,0.356 0.319,0 0.643,-0.136 0.848,-0.355 L 0,3.128 C 0.358,2.755 0.388,2.124 0.388,1.561 0.388,1.127 0.388,0.404 0,0 m -0.849,4.468 c -0.634,0 -1.208,-0.226 -1.617,-0.636 -0.593,-0.593 -0.713,-1.309 -0.713,-2.271 0,-0.959 0.12,-1.672 0.713,-2.265 0.409,-0.409 0.983,-0.635 1.617,-0.635 0.634,0 1.208,0.226 1.617,0.635 0.593,0.593 0.712,1.306 0.712,2.265 0,0.962 -0.119,1.678 -0.712,2.271 -0.409,0.41 -0.983,0.636 -1.617,0.636"
             style="fill:#0064a7;fill-opacity:1;fill-rule:nonzero;stroke:none"
             id="path4221"
             inkscape:connector-curvature="0" /></g><g
           id="g4223"
           transform="translate(529.5286,792.6074)"
           style="fill:#0064a7;fill-opacity:1"><path
             d="M 0,0 1.292,0 C 1.868,0 2.17,-0.402 2.17,-0.8 2.17,-1.298 1.855,-1.585 1.307,-1.585 L 0,-1.585 0,0 z m 3.247,-0.8 c 0,0.808 -0.512,1.752 -1.955,1.752 l -2.369,0 0,-5.604 1.084,0 0,2.092 1.191,0 0,-10e-4 c 0,-0.049 0.889,-2.07 0.889,-2.07 l 0.009,-0.021 1.17,0 c 0,0 -0.999,2.228 -1.024,2.284 0.619,0.247 1.005,0.841 1.005,1.568"
             style="fill:#0064a7;fill-opacity:1;fill-rule:nonzero;stroke:none"
             id="path4225"
             inkscape:connector-curvature="0" /></g><g
           id="g4227"
           transform="translate(534.7892,793.5598)"
           style="fill:#0064a7;fill-opacity:1"><path
             d="m 0,0 -1.077,0 0,-5.604 3.645,0 0,1.022 L 0,-4.582 0,0 z"
             style="fill:#0064a7;fill-opacity:1;fill-rule:nonzero;stroke:none"
             id="path4229"
             inkscape:connector-curvature="0" /></g><g
           id="g4231"
           transform="translate(539.1987,792.5843)"
           style="fill:#0064a7;fill-opacity:1"><path
             d="m 0,0 1.113,0 c 0.292,0 0.56,-0.107 0.755,-0.302 0.388,-0.388 0.388,-1.043 0.388,-1.521 0,-0.481 0,-1.141 -0.388,-1.528 C 1.673,-3.546 1.405,-3.654 1.113,-3.654 L 0,-3.654 0,0 z m 1.113,0.976 -2.189,0 0,-5.604 2.189,0 c 0.644,0 1.205,0.214 1.578,0.603 0.58,0.596 0.658,1.447 0.658,2.202 0,0.751 -0.078,1.6 -0.658,2.194 -0.373,0.39 -0.934,0.605 -1.578,0.605"
             style="fill:#0064a7;fill-opacity:1;fill-rule:nonzero;stroke:none"
             id="path4233"
             inkscape:connector-curvature="0" /></g><g
           id="g4235"
           transform="translate(547.8831,789.821)"
           style="fill:#0064a7;fill-opacity:1"><path
             d="m 0,0 c -0.074,0.25 -1.084,3.653 -1.084,3.653 l -0.895,0 c 0,0 -1.032,-3.405 -1.107,-3.654 -0.051,0.255 -0.75,3.74 -0.75,3.74 l -1.032,0 1.13,-5.604 1.062,0 c 0,0 1.066,3.521 1.129,3.73 0.063,-0.209 1.129,-3.73 1.129,-3.73 l 1.062,0 1.114,5.604 -0.992,0 C 0.766,3.739 0.053,0.255 0,0"
             style="fill:#0064a7;fill-opacity:1;fill-rule:nonzero;stroke:none"
             id="path4237"
             inkscape:connector-curvature="0" /></g><path
           d="m 550.461,787.956 1.092,0 0,5.604 -1.092,0 0,-5.604 z"
           style="fill:#0064a7;fill-opacity:1;fill-rule:nonzero;stroke:none"
           id="path4239"
           inkscape:connector-curvature="0" /><g
           id="g4241"
           transform="translate(553.9732,792.5843)"
           style="fill:#0064a7;fill-opacity:1"><path
             d="m 0,0 1.113,0 c 0.292,0 0.56,-0.107 0.755,-0.302 0.388,-0.388 0.388,-1.043 0.388,-1.521 0,-0.481 0,-1.141 -0.388,-1.528 C 1.673,-3.546 1.405,-3.654 1.113,-3.654 L 0,-3.654 0,0 z m 1.113,0.976 -2.19,0 0,-5.604 2.19,0 c 0.644,0 1.204,0.214 1.578,0.603 0.579,0.596 0.657,1.447 0.657,2.202 0,0.751 -0.078,1.6 -0.657,2.194 -0.373,0.39 -0.934,0.605 -1.578,0.605"
             style="fill:#0064a7;fill-opacity:1;fill-rule:nonzero;stroke:none"
             id="path4243"
             inkscape:connector-curvature="0" /></g><g
           id="g4245"
           transform="translate(558.3522,787.9559)"
           style="fill:#0064a7;fill-opacity:1"><path
             d="m 0,0 4.011,0 0,0.983 -2.934,0 0,1.444 2.584,0 0,0.975 -2.584,0 0,1.219 2.934,0 0,0.983 L 0,5.604 0,0 z"
             style="fill:#0064a7;fill-opacity:1;fill-rule:nonzero;stroke:none"
             id="path4247"
             inkscape:connector-curvature="0" /></g><g
           id="g4249"
           transform="translate(489.4961,814.9139)"
           style="fill:#e20028;fill-opacity:1"><path
             d="M 0,0 C 1.18,0.307 2.327,0.698 3.431,1.166 1.228,2.787 -1.345,3.879 -4.127,4.268 -2.567,3.524 -1.155,2.034 0,0"
             style="fill:#e20028;fill-opacity:1;fill-rule:nonzero;stroke:none"
             id="path4251"
             inkscape:connector-curvature="0" /></g><g
           id="g4253"
           transform="translate(490.0423,788.0751)"
           style="fill:#0064a7;fill-opacity:1"><path
             d="M 0,0 C 1.307,-0.395 2.57,-0.901 3.776,-1.505 5.696,0.112 7.288,2.155 8.422,4.49 6.243,4.639 4,4.76 1.702,4.844 1.268,3.054 0.69,1.42 0,0"
             style="fill:#0064a7;fill-opacity:1;fill-rule:nonzero;stroke:none"
             id="path4255"
             inkscape:connector-curvature="0" /></g><g
           id="g4257"
           transform="translate(478.045,787.2809)"
           style="fill:#0064a7;fill-opacity:1"><path
             d="m 0,0 c 1.181,-2.452 2.68,-4.092 4.336,-4.546 l 0,5.09 C 2.853,0.487 1.405,0.301 0,0"
             style="fill:#0064a7;fill-opacity:1;fill-rule:nonzero;stroke:none"
             id="path4259"
             inkscape:connector-curvature="0" /></g><g
           id="g4261"
           transform="translate(484.0292,782.7349)"
           style="fill:#0064a7;fill-opacity:1"><path
             d="M 0,0 C 1.662,0.456 3.165,2.102 4.347,4.563 2.939,4.862 1.486,5.041 0,5.094 L 0,0 z"
             style="fill:#0064a7;fill-opacity:1;fill-rule:nonzero;stroke:none"
             id="path4263"
             inkscape:connector-curvature="0" /></g><g
           id="g4265"
           transform="translate(481.0433,819.1824)"
           style="fill:#e20028;fill-opacity:1"><path
             d="m 0,0 c -2.768,-0.385 -5.33,-1.47 -7.526,-3.078 1.099,-0.468 2.237,-0.86 3.41,-1.17 C -2.96,-2.225 -1.554,-0.741 0,0"
             style="fill:#e20028;fill-opacity:1;fill-rule:nonzero;stroke:none"
             id="path4267"
             inkscape:connector-curvature="0" /></g><g
           id="g4269"
           transform="translate(467.9491,792.565)"
           style="fill:#0064a7;fill-opacity:1"><path
             d="m 0,0 c 1.139,-2.348 2.741,-4.4 4.679,-6.023 1.198,0.605 2.452,1.111 3.752,1.511 C 7.736,-3.087 7.156,-1.444 6.718,0.354 4.42,0.27 2.179,0.149 0,0"
             style="fill:#0064a7;fill-opacity:1;fill-rule:nonzero;stroke:none"
             id="path4271"
             inkscape:connector-curvature="0" /></g><g
           id="g4273"
           transform="translate(499.7979,809.48)"
           style="fill:#e20028;fill-opacity:1"><path
             d="M 0,0 C 2.403,0.182 4.724,0.401 6.944,0.657 4.507,3.502 0.971,5.863 -3.272,7.484 -3.899,7.058 -4.547,6.664 -5.214,6.299 -3.044,4.616 -1.257,2.466 0,0"
             style="fill:#e20028;fill-opacity:1;fill-rule:nonzero;stroke:none"
             id="path4275"
             inkscape:connector-curvature="0" /></g><g
           id="g4277"
           transform="translate(485.3686,782.7651)"
           style="fill:#0064a7;fill-opacity:1"><path
             d="M 0,0 C 2.783,0.39 5.356,1.481 7.559,3.103 6.454,3.57 5.307,3.962 4.127,4.269 2.972,2.234 1.561,0.745 0,0"
             style="fill:#0064a7;fill-opacity:1;fill-rule:nonzero;stroke:none"
             id="path4279"
             inkscape:connector-curvature="0" /></g><g
           id="g4281"
           transform="translate(476.9277,787.014)"
           style="fill:#0064a7;fill-opacity:1"><path
             d="m 0,0 c -1.174,-0.31 -2.312,-0.702 -3.41,-1.169 2.195,-1.61 4.756,-2.692 7.526,-3.08 C 2.561,-3.507 1.154,-2.022 0,0"
             style="fill:#0064a7;fill-opacity:1;fill-rule:nonzero;stroke:none"
             id="path4283"
             inkscape:connector-curvature="0" /></g><g
           id="g4285"
           transform="translate(482.3809,812.8744)"
           style="fill:#e20028;fill-opacity:1"><path
             d="M 0,0 C -1.655,0.068 -3.266,0.306 -4.821,0.695 -5.371,-0.659 -5.833,-2.207 -6.187,-3.898 -4.161,-3.96 -2.096,-3.995 0,-4.004 L 0,0 z"
             style="fill:#e20028;fill-opacity:1;fill-rule:nonzero;stroke:none"
             id="path4287"
             inkscape:connector-curvature="0" /></g><g
           id="g4289"
           transform="translate(482.3809,789.0728)"
           style="fill:#0064a7;fill-opacity:1"><path
             d="M 0,0 0,4.006 C -2.096,3.996 -4.161,3.96 -6.187,3.899 -5.833,2.206 -5.371,0.66 -4.821,-0.693 -3.266,-0.304 -1.655,-0.066 0,0"
             style="fill:#0064a7;fill-opacity:1;fill-rule:nonzero;stroke:none"
             id="path4291"
             inkscape:connector-curvature="0" /></g><g
           id="g4293"
           transform="translate(473.7397,800.9739)"
           style="fill:#0064a7;fill-opacity:1"><path
             d="M 0,0 C 0,2.308 0.213,4.518 0.603,6.561 -1.805,6.685 -4.137,6.856 -6.376,7.074 -7.231,4.896 -7.705,2.507 -7.705,0 c 0,-2.507 0.474,-4.896 1.329,-7.074 2.239,0.217 4.571,0.39 6.979,0.513 C 0.213,-4.518 0,-2.308 0,0"
             style="fill:#0064a7;fill-opacity:1;fill-rule:nonzero;stroke:none"
             id="path4295"
             inkscape:connector-curvature="0" /></g><g
           id="g4297"
           transform="translate(498.4645,809.3829)"
           style="fill:#e20028;fill-opacity:1"><path
             d="M 0,0 C -1.134,2.336 -2.726,4.377 -4.646,5.995 -5.852,5.392 -7.115,4.886 -8.422,4.491 -7.732,3.069 -7.154,1.435 -6.72,-0.354 -4.422,-0.269 -2.18,-0.149 0,0"
             style="fill:#e20028;fill-opacity:1;fill-rule:nonzero;stroke:none"
             id="path4299"
             inkscape:connector-curvature="0" /></g><g
           id="g4301"
           transform="translate(484.0292,789.0767)"
           style="fill:#0064a7;fill-opacity:1"><path
             d="M 0,0 C 1.659,-0.061 3.274,-0.293 4.831,-0.676 5.378,0.671 5.837,2.212 6.189,3.895 4.164,3.956 2.098,3.992 0,4.002 L 0,0 z"
             style="fill:#0064a7;fill-opacity:1;fill-rule:nonzero;stroke:none"
             id="path4303"
             inkscape:connector-curvature="0" /></g><g
           id="g4305"
           transform="translate(484.0292,812.8716)"
           style="fill:#e20028;fill-opacity:1"><path
             d="m 0,0 0,-4.001 c 2.098,0.009 4.164,0.044 6.189,0.106 C 5.837,-2.212 5.378,-0.671 4.831,0.678 3.274,0.293 1.659,0.061 0,0"
             style="fill:#e20028;fill-opacity:1;fill-rule:nonzero;stroke:none"
             id="path4307"
             inkscape:connector-curvature="0" /></g><g
           id="g4309"
           transform="translate(476.3801,813.8966)"
           style="fill:#e20028;fill-opacity:1"><path
             d="m 0,0 c -1.3,0.398 -2.554,0.906 -3.752,1.509 -1.938,-1.621 -3.54,-3.676 -4.679,-6.023 2.179,-0.149 4.42,-0.269 6.718,-0.354 C -1.275,-3.07 -0.695,-1.427 0,0"
             style="fill:#e20028;fill-opacity:1;fill-rule:nonzero;stroke:none"
             id="path4311"
             inkscape:connector-curvature="0" /></g><g
           id="g4313"
           transform="translate(495.4856,817.3407)"
           style="fill:#e20028;fill-opacity:1"><path
             d="M 0,0 C -2.278,0.784 -4.742,1.357 -7.334,1.684 -5.327,1.123 -3.457,0.236 -1.782,-0.917 -1.174,-0.634 -0.579,-0.328 0,0"
             style="fill:#e20028;fill-opacity:1;fill-rule:nonzero;stroke:none"
             id="path4315"
             inkscape:connector-curvature="0" /></g><g
           id="g4317"
           transform="translate(488.376,814.6501)"
           style="fill:#e20028;fill-opacity:1"><path
             d="m 0,0 c -1.182,2.461 -2.685,4.107 -4.347,4.562 l 0,-5.092 C -2.861,-0.478 -1.408,-0.297 0,0"
             style="fill:#e20028;fill-opacity:1;fill-rule:nonzero;stroke:none"
             id="path4319"
             inkscape:connector-curvature="0" /></g><g
           id="g4321"
           transform="translate(482.3809,819.2125)"
           style="fill:#e20028;fill-opacity:1"><path
             d="M 0,0 C -1.656,-0.454 -3.155,-2.094 -4.336,-4.546 -2.931,-4.846 -1.483,-5.032 0,-5.089 L 0,0 z"
             style="fill:#e20028;fill-opacity:1;fill-rule:nonzero;stroke:none"
             id="path4323"
             inkscape:connector-curvature="0" /></g><g
           id="g4325"
           transform="translate(471.8647,815.8074)"
           style="fill:#e20028;fill-opacity:1"><path
             d="m 0,0 c -0.658,0.362 -1.3,0.756 -1.921,1.177 -4.269,-1.62 -7.826,-3.99 -10.273,-6.847 2.221,-0.256 4.539,-0.475 6.943,-0.657 C -3.986,-3.849 -2.184,-1.689 0,0"
             style="fill:#e20028;fill-opacity:1;fill-rule:nonzero;stroke:none"
             id="path4327"
             inkscape:connector-curvature="0" /></g><g
           id="g4329"
           transform="translate(464.5772,800.9739)"
           style="fill:#0064a7;fill-opacity:1"><path
             d="M 0,0 C 0,2.556 0.513,4.991 1.438,7.212 -1.076,7.479 -3.462,7.806 -5.689,8.18 -7.511,5.718 -8.538,2.939 -8.538,0 c 0,-2.939 1.027,-5.717 2.851,-8.182 2.225,0.377 4.611,0.703 7.125,0.97 C 0.513,-4.992 0,-2.557 0,0"
             style="fill:#0064a7;fill-opacity:1;fill-rule:nonzero;stroke:none"
             id="path4331"
             inkscape:connector-curvature="0" /></g><g
           id="g4333"
           transform="translate(494.584,786.1696)"
           style="fill:#0064a7;fill-opacity:1"><path
             d="M 0,0 C 0.667,-0.365 1.315,-0.761 1.942,-1.185 6.186,0.435 9.721,2.798 12.158,5.641 9.938,5.896 7.617,6.116 5.214,6.298 3.957,3.834 2.17,1.683 0,0"
             style="fill:#0064a7;fill-opacity:1;fill-rule:nonzero;stroke:none"
             id="path4335"
             inkscape:connector-curvature="0" /></g><g
           id="g4337"
           transform="translate(488.1511,782.923)"
           style="fill:#0064a7;fill-opacity:1"><path
             d="M 0,0 C 2.593,0.327 5.056,0.901 7.334,1.684 6.756,2.014 6.161,2.319 5.552,2.602 3.877,1.449 2.008,0.562 0,0"
             style="fill:#0064a7;fill-opacity:1;fill-rule:nonzero;stroke:none"
             id="path4339"
             inkscape:connector-curvature="0" /></g><g
           id="g4341"
           transform="translate(466.6136,792.4675)"
           style="fill:#0064a7;fill-opacity:1"><path
             d="M 0,0 C -2.404,-0.182 -4.722,-0.402 -6.943,-0.657 -4.496,-3.513 -0.939,-5.883 3.33,-7.503 3.951,-7.084 4.593,-6.69 5.251,-6.327 3.067,-4.638 1.265,-2.479 0,0"
             style="fill:#0064a7;fill-opacity:1;fill-rule:nonzero;stroke:none"
             id="path4343"
             inkscape:connector-curvature="0" /></g><g
           id="g4345"
           transform="translate(470.9821,784.5892)"
           style="fill:#0064a7;fill-opacity:1"><path
             d="M 0,0 C 2.264,-0.774 4.708,-1.341 7.28,-1.666 5.287,-1.108 3.428,-0.229 1.762,0.91 1.161,0.63 0.573,0.325 0,0"
             style="fill:#0064a7;fill-opacity:1;fill-rule:nonzero;stroke:none"
             id="path4347"
             inkscape:connector-curvature="0" /></g><g
           id="g4349"
           transform="translate(478.2611,819.0249)"
           style="fill:#e20028;fill-opacity:1"><path
             d="m 0,0 c -2.571,-0.326 -5.015,-0.891 -7.279,-1.666 0.573,-0.325 1.161,-0.63 1.762,-0.91 C -3.851,-1.437 -1.993,-0.556 0,0"
             style="fill:#e20028;fill-opacity:1;fill-rule:nonzero;stroke:none"
             id="path4351"
             inkscape:connector-curvature="0" /></g><g
           id="g4353"
           transform="translate(504.4951,797.1945)"
           style="fill:#0064a7;fill-opacity:1"><path
             d="m 0,0 -1.494,0 c 0,0 -1.412,4.668 -1.536,5.075 C -3.153,4.668 -4.566,0 -4.566,0 l -1.494,0 -1.562,7.748 1.462,0 c 0,0 0.92,-4.58 1.019,-5.072 0.146,0.48 1.501,4.954 1.501,4.954 l 1.263,0 c 0,0 1.326,-4.47 1.47,-4.953 0.101,0.493 1.039,5.071 1.039,5.071 l 1.409,0 L 0,0 z m -8.7,0 -1.537,0 c 0,0 -2.946,4.674 -3.184,5.053 l 0,-5.053 -1.504,0 0,7.748 1.579,0 c 0,0 2.903,-4.6 3.142,-4.978 l 0,4.978 1.504,0 0,-7.748 z m -9.086,0 c 0,0 -1.231,2.795 -1.267,2.875 l -1.569,0 0,-2.875 -1.535,0 0,7.748 3.279,0 c 2,0 2.709,-1.309 2.709,-2.431 0,-0.999 -0.528,-1.816 -1.375,-2.164 C -17.494,3.042 -16.13,0 -16.13,0 l -1.656,0 z M 3.029,11.959 C 1.924,11.774 0.785,11.6 -0.394,11.44 c -1.197,-0.164 -2.435,-0.313 -3.704,-0.448 -0.446,-0.048 -0.896,-0.094 -1.349,-0.138 -2.238,-0.217 -4.569,-0.389 -6.98,-0.514 -0.519,-0.027 -1.043,-0.051 -1.57,-0.072 -2.106,-0.089 -4.265,-0.142 -6.469,-0.153 -0.31,-10e-4 -0.397,-0.002 -0.71,-0.002 -0.313,0 -0.626,0.001 -0.938,0.002 -0.574,0.003 -1.147,0.009 -1.718,0.016 -1.609,0.025 -3.195,0.071 -4.75,0.136 -0.328,-2.017 -0.508,-4.203 -0.508,-6.488 0,-2.284 0.18,-4.47 0.508,-6.487 1.65,0.069 3.332,0.117 5.041,0.14 0.475,0.005 0.95,0.008 1.427,0.012 0.312,0.002 0.625,0.003 0.938,0.003 0.313,0 0.4,-10e-4 0.71,-0.003 2.204,-0.011 4.363,-0.063 6.469,-0.152 0.529,-0.021 1.051,-0.046 1.57,-0.074 2.41,-0.123 4.744,-0.296 6.98,-0.513 0.454,-0.044 0.903,-0.09 1.349,-0.138 1.002,-0.107 1.986,-0.222 2.946,-0.347 1.446,-0.188 2.841,-0.394 4.181,-0.621 1.823,2.463 2.849,5.241 2.849,8.18 0,2.94 -1.026,5.718 -2.849,8.18 m -21.907,-5.564 -1.754,0 0,-2.134 1.775,0 c 0.751,0 1.164,0.375 1.164,1.056 0,0.536 -0.407,1.078 -1.185,1.078"
             style="fill:#0064a7;fill-opacity:1;fill-rule:nonzero;stroke:none"
             id="path4355"
             inkscape:connector-curvature="0" /></g></g></g></g></svg>